HIERARCHY
ROOT Hips
{
 OFFSET 0.000000 0.000000 0.000000
 CHANNELS 6 Xposition Yposition Zposition Yrotation Xrotation Zrotation
 JOINT Chest
 {
  OFFSET 0.000000 9.585900 0.002600
  CHANNELS 3 Yrotation Xrotation Zrotation
  JOINT Chest2
  {
   OFFSET 0.000000 9.601200 -0.005300
   CHANNELS 3 Yrotation Xrotation Zrotation
   JOINT Chest3
   {
    OFFSET 0.000000 9.561800 0.000000
    CHANNELS 3 Yrotation Xrotation Zrotation
    JOINT Chest4
    {
     OFFSET 0.000000 9.552100 0.000000
     CHANNELS 3 Yrotation Xrotation Zrotation
     JOINT Neck
     {
      OFFSET 0.000000 14.453000 0.000000
      CHANNELS 3 Yrotation Xrotation Zrotation
      JOINT Head
      {
       OFFSET 0.000000 8.936500 -0.011300
       CHANNELS 3 Yrotation Xrotation Zrotation
       End Site
       {
        OFFSET 0.000000 17.073600 -0.006000
       }
      }
     }
     JOINT RightCollar
     {
      OFFSET -2.921100 9.558500 0.000000
      CHANNELS 3 Yrotation Xrotation Zrotation
      JOINT RightShoulder
      {
       OFFSET -13.519700 0.000000 0.000000
       CHANNELS 3 Yrotation Xrotation Zrotation
       JOINT RightElbow
       {
        OFFSET 0.000000 -29.696600 0.000000
        CHANNELS 3 Yrotation Xrotation Zrotation
        JOINT RightWrist
        {
         OFFSET 0.000000 -24.004700 0.000000
         CHANNELS 3 Yrotation Xrotation Zrotation
         End Site
         {
          OFFSET 0.000000 -17.728500 0.000000
         }
        }
       }
      }
     }
     JOINT LeftCollar
     {
      OFFSET 2.921100 9.558500 0.000000
      CHANNELS 3 Yrotation Xrotation Zrotation
      JOINT LeftShoulder
      {
       OFFSET 13.519700 0.000000 0.000000
       CHANNELS 3 Yrotation Xrotation Zrotation
       JOINT LeftElbow
       {
        OFFSET 0.000000 -29.696600 0.000000
        CHANNELS 3 Yrotation Xrotation Zrotation
        JOINT LeftWrist
        {
         OFFSET 0.000000 -24.004700 0.000000
         CHANNELS 3 Yrotation Xrotation Zrotation
         End Site
         {
          OFFSET 0.000000 -17.728500 0.000000
         }
        }
       }
      }
     }
    }
   }
  }
 }
 JOINT RightHip
 {
  OFFSET -7.771700 -0.012900 -0.001300
  CHANNELS 3 Yrotation Xrotation Zrotation
  JOINT RightKnee
  {
   OFFSET 0.000000 -40.869800 0.001200
   CHANNELS 3 Yrotation Xrotation Zrotation
   JOINT RightAnkle
   {
    OFFSET 0.000000 -39.717900 0.002100
    CHANNELS 3 Yrotation Xrotation Zrotation
    JOINT RightToe
    {
     OFFSET 0.000000 -4.965400 11.033500
     CHANNELS 3 Yrotation Xrotation Zrotation
     End Site
     {
      OFFSET 0.000000 -1.423100 5.872300
     }
    }
   }
  }
 }
 JOINT LeftHip
 {
  OFFSET 7.771700 -0.012900 -0.001300
  CHANNELS 3 Yrotation Xrotation Zrotation
  JOINT LeftKnee
  {
   OFFSET 0.000000 -40.869800 0.001200
   CHANNELS 3 Yrotation Xrotation Zrotation
   JOINT LeftAnkle
   {
    OFFSET 0.000000 -39.717900 0.002100
    CHANNELS 3 Yrotation Xrotation Zrotation
    JOINT LeftToe
    {
     OFFSET 0.000000 -4.965400 11.033500
     CHANNELS 3 Yrotation Xrotation Zrotation
     End Site
     {
      OFFSET 0.000000 -1.423100 5.872300
     }
    }
   }
  }
 }
}
MOTION
Frames: 15
Frame Time: 0.008333
-25.454649 51.704548 27.178185 178.709652 -18.139687 -1.505137 -0.148208 13.348819 0.746282 -0.026764 1.089637 0.088712 -0.050637 1.857266 0.148719 -0.203173 12.111814 0.966638 -1.341341 17.851502 -4.565166 -0.386653 -6.856822 -4.540999 9.226878 10.448661 13.283013 58.164977 -7.698036 -55.899708 137.223601 -35.234634 -170.075356 4.704561 -4.622711 -23.589226 -7.053065 11.110783 -17.427555 -43.183220 10.012028 40.361683 171.730121 -41.974999 -158.127347 24.867311 -9.002700 -55.691921 -13.177429 -63.446344 7.230610 -63.868734 81.996254 -72.021616 -4.003556 -7.543973 8.640890 -0.042698 -0.426480 -0.040263 4.086477 -63.310308 -3.277479 56.229549 85.020679 62.662344 -1.451112 -12.155725 -2.591435 0.180224 0.260255 0.074227
-25.447161 51.703919 27.175192 178.699648 -18.126621 -1.501660 -0.155230 13.356262 0.742408 -0.026480 1.089112 0.087899 -0.037046 1.839504 0.148506 -0.204305 12.113922 0.964774 -1.341894 17.858620 -4.569535 -0.379737 -6.845783 -4.551168 9.222811 10.444993 13.279766 58.173871 -7.698006 -55.899187 137.215208 -35.241255 -170.071884 4.748772 -4.587153 -23.621225 -7.060823 11.111737 -17.428636 -43.188468 9.997315 40.374283 171.742379 -41.987180 -158.123137 24.872114 -9.006748 -55.709169 -13.192832 -63.461836 7.242542 -63.901292 82.015563 -72.037398 -4.022346 -7.558994 8.618686 -0.031714 -0.414103 -0.036107 4.080447 -63.322928 -3.258223 56.201512 85.034167 62.632500 -1.437157 -12.157179 -2.595122 0.170484 0.258140 0.072402
-25.439289 51.703828 27.170658 178.695262 -18.121923 -1.500862 -0.158317 13.361688 0.742985 -0.026510 1.088850 0.087491 -0.036355 1.840009 0.147559 -0.202558 12.108342 0.962873 -1.345207 17.869720 -4.577564 -0.375852 -6.839266 -4.557311 9.218214 10.445439 13.274063 58.183908 -7.700594 -55.901561 137.213735 -35.251965 -170.073555 4.749341 -4.582788 -23.616299 -7.066222 11.112546 -17.432393 -43.206228 9.983473 40.396579 171.754801 -42.006998 -158.104606 24.847412 -9.033728 -55.759250 -13.214870 -63.468257 7.257613 -63.934324 82.028588 -72.065609 -4.020979 -7.564754 8.607300 -0.035729 -0.412467 -0.034059 4.004964 -63.328237 -3.172820 56.129915 85.061925 62.532363 -1.437268 -12.162395 -2.602274 0.183063 0.256219 0.076466
-25.431110 51.703959 27.165521 178.687081 -18.119959 -1.499653 -0.158171 13.369216 0.744098 -0.026333 1.088526 0.086889 -0.036883 1.840336 0.147638 -0.206765 12.112164 0.952634 -1.341430 17.876940 -4.582828 -0.371938 -6.834671 -4.561317 9.225880 10.435107 13.274820 58.181016 -7.705498 -55.899149 137.221767 -35.252136 -170.076557 4.732661 -4.580098 -23.599856 -7.059472 11.104257 -17.430559 -43.210385 9.979259 40.410574 171.794451 -42.013283 -158.122885 24.869409 -9.027674 -55.758120 -13.239296 -63.471515 7.278604 -63.978412 82.036519 -72.109052 -4.010246 -7.571457 8.600149 -0.036785 -0.412218 -0.034977 3.980291 -63.328291 -3.138459 56.083720 85.083308 62.489314 -1.428312 -12.169794 -2.620730 0.193720 0.254025 0.080860
-25.424980 51.703340 27.162480 178.673563 -18.103556 -1.484140 -0.154514 13.362777 0.732676 -0.024220 1.082902 0.085657 -0.045601 1.852963 0.146717 -0.194857 12.096704 0.950933 -1.347875 17.892596 -4.592231 -0.376711 -6.795065 -4.579326 9.220970 10.437853 13.272137 58.177587 -7.709749 -55.895111 137.229647 -35.249613 -170.079470 4.722085 -4.582999 -23.589592 -7.060883 11.104588 -17.432090 -43.214285 9.977773 40.418095 171.834716 -42.017815 -158.143283 24.887808 -9.031633 -55.787994 -13.228445 -63.491804 7.272011 -64.015437 82.038991 -72.144257 -4.005425 -7.581204 8.602887 -0.034128 -0.405692 -0.040280 4.007281 -63.342016 -3.152471 56.035478 85.095027 62.444220 -1.419208 -12.166316 -2.625112 0.189758 0.248429 0.078333
-25.419023 51.702744 27.159203 178.666903 -18.087869 -1.469306 -0.155379 13.357842 0.720805 -0.024848 1.077029 0.083854 -0.045234 1.857091 0.146709 -0.198618 12.094913 0.943545 -1.344662 17.904029 -4.598260 -0.373664 -6.780896 -4.586099 9.220810 10.438881 13.269786 58.175411 -7.717615 -55.893613 137.247317 -35.255867 -170.091041 4.716936 -4.595262 -23.572675 -7.053863 11.100770 -17.429528 -43.214339 9.977274 40.423588 171.875454 -42.007582 -158.178753 24.898658 -9.031336 -55.799493 -13.221826 -63.511174 7.264288 -64.034285 82.041975 -72.166155 -3.998739 -7.583184 8.603786 -0.039322 -0.405479 -0.040157 3.997157 -63.354096 -3.135253 55.973796 85.105042 62.366397 -1.418013 -12.166749 -2.623289 0.182423 0.251315 0.075746
-25.412448 51.702437 27.154867 178.676837 -18.078557 -1.463001 -0.171369 13.359225 0.713369 -0.020208 1.077058 0.082418 -0.050188 1.855593 0.146339 -0.206375 12.098134 0.928711 -1.334546 17.911836 -4.598635 -0.369373 -6.766000 -4.594137 9.222886 10.431329 13.267324 58.164958 -7.723046 -55.888849 137.269273 -35.263089 -170.105836 4.695817 -4.612388 -23.545962 -7.054608 11.100604 -17.434922 -43.207766 9.971876 40.448004 171.876142 -42.009979 -158.177197 24.896185 -9.037106 -55.820823 -13.246470 -63.524356 7.264779 -64.098700 82.048915 -72.228687 -3.996338 -7.582009 8.603528 -0.041073 -0.410161 -0.042496 3.958875 -63.360303 -3.108375 55.865133 85.124984 62.245868 -1.404439 -12.169726 -2.631664 0.182474 0.253616 0.076860
-25.405792 51.701749 27.151410 178.667284 -18.064891 -1.451143 -0.170182 13.356080 0.706888 -0.022645 1.076296 0.080282 -0.045471 1.852329 0.146240 -0.212336 12.100011 0.919462 -1.329907 17.924326 -4.605264 -0.363005 -6.751899 -4.602544 9.219960 10.429788 13.257732 58.150014 -7.725191 -55.885368 137.292322 -35.250465 -170.129965 4.662592 -4.602113 -23.512084 -7.054777 11.094786 -17.436215 -43.206553 9.972133 40.458449 171.878342 -42.013021 -158.172468 24.906910 -9.046789 -55.847475 -13.250160 -63.542909 7.262045 -64.153436 82.051443 -72.278602 -3.979749 -7.584959 8.596466 -0.044104 -0.409104 -0.043930 3.930471 -63.371396 -3.081396 55.834521 85.138013 62.211575 -1.397041 -12.172063 -2.653510 0.192260 0.251548 0.081003
-25.399460 51.700987 27.147810 178.653590 -18.053537 -1.435720 -0.163224 13.350135 0.696642 -0.031618 1.092986 0.083939 -0.034151 1.832143 0.141235 -0.221263 12.108507 0.909428 -1.323121 17.935763 -4.610749 -0.359024 -6.756392 -4.600294 9.216665 10.425516 13.248706 58.144072 -7.725517 -55.882554 137.304439 -35.250567 -170.140305 4.661472 -4.613135 -23.521187 -7.058236 11.088652 -17.436398 -43.205377 9.970429 40.466383 171.876021 -42.007688 -158.170848 24.944051 -9.063653 -55.891082 -13.256108 -63.558807 7.263524 -64.168769 82.058450 -72.294384 -3.969643 -7.584279 8.588975 -0.045568 -0.406087 -0.043835 3.859123 -63.377842 -3.013786 55.846652 85.142211 62.191554 -1.386678 -12.181309 -2.667199 0.192712 0.254972 0.079081
-25.391870 51.699911 27.145009 178.632722 -18.039610 -1.425021 -0.150429 13.342543 0.692166 -0.030888 1.092913 0.083208 -0.040444 1.838141 0.140443 -0.214307 12.101706 0.904524 -1.321501 17.952318 -4.619848 -0.355428 -6.761214 -4.598093 9.196491 10.425632 13.230777 58.153969 -7.725574 -55.877106 137.307421 -35.254484 -170.145192 4.660398 -4.605562 -23.529775 -7.071193 11.091592 -17.443534 -43.217810 9.966973 40.474278 171.879029 -42.008013 -158.162012 24.954298 -9.062260 -55.905976 -13.274785 -63.575772 7.288250 -64.169229 82.063247 -72.299351 -3.958432 -7.580913 8.584927 -0.049132 -0.404381 -0.046823 3.839199 -63.388921 -2.983838 55.869947 85.148166 62.213104 -1.379150 -12.186763 -2.685448 0.195228 0.255957 0.079587
-25.384278 51.698747 27.142244 178.622832 -18.027770 -1.416627 -0.151211 13.344403 0.685870 -0.026495 1.085876 0.082322 -0.044010 1.844339 0.139530 -0.208870 12.094775 0.900838 -1.322065 17.962947 -4.626194 -0.342441 -6.743808 -4.608217 9.195120 10.420195 13.230570 58.149205 -7.709276 -55.880044 137.311403 -35.252135 -170.144190 4.672807 -4.589470 -23.555217 -7.083852 11.097407 -17.451676 -43.212411 9.964075 40.488958 171.836343 -41.987627 -158.135517 24.941231 -9.064132 -55.919233 -13.298916 -63.593410 7.308219 -64.206422 82.071738 -72.337138 -3.957233 -7.576781 8.577802 -0.046968 -0.407605 -0.049659 3.809489 -63.397750 -2.953490 55.872905 85.150562 62.212656 -1.377389 -12.189457 -2.700376 0.193710 0.260843 0.081484
-25.377422 51.697810 27.138547 178.618146 -18.024454 -1.403929 -0.181322 13.362359 0.663229 -0.008753 1.075550 0.084525 -0.043848 1.845024 0.138279 -0.223894 12.112325 0.881142 -1.296516 17.956552 -4.625058 -0.331871 -6.733345 -4.615090 9.210102 10.397328 13.230689 58.162040 -7.708213 -55.880645 137.310090 -35.249186 -170.143897 4.687105 -4.573758 -23.573690 -7.060194 11.077386 -17.438553 -43.213675 9.963809 40.493356 171.818444 -41.981834 -158.124990 24.948333 -9.072330 -55.936566 -13.346405 -63.612576 7.338281 -64.348119 82.085713 -72.485020 -3.961936 -7.565784 8.560169 -0.030561 -0.427623 -0.051612 3.779004 -63.397411 -2.929698 55.887037 85.151063 62.220028 -1.376932 -12.190586 -2.714468 0.198000 0.261247 0.080669
-25.369145 51.696471 27.136204 178.593796 -18.016482 -1.392452 -0.167254 13.359252 0.655409 -0.020153 1.081530 0.083951 -0.048919 1.852044 0.133311 -0.206908 12.105408 0.877519 -1.293653 17.972715 -4.638155 -0.322244 -6.731625 -4.619660 9.191198 10.400133 13.216815 58.188764 -7.714975 -55.879599 137.291669 -35.248955 -170.124382 4.711512 -4.569669 -23.573594 -7.059329 11.074097 -17.433834 -43.255075 9.970666 40.470385 171.869687 -42.004594 -158.146007 24.954101 -9.076921 -55.945609 -13.352649 -63.627634 7.362866 -64.400372 82.089828 -72.543761 -3.961454 -7.564495 8.563292 -0.036955 -0.425877 -0.055456 3.779695 -63.403308 -2.914441 55.904045 85.156713 62.243880 -1.369399 -12.191708 -2.732459 0.198098 0.259676 0.081337
-25.360235 51.694959 27.134489 178.576185 -18.007687 -1.385838 -0.156847 13.355492 0.649921 -0.025764 1.087356 0.080191 -0.042743 1.846850 0.135973 -0.203026 12.103113 0.877468 -1.294220 17.991069 -4.654504 -0.306754 -6.693472 -4.650535 9.189945 10.399289 13.214022 58.178952 -7.688271 -55.877039 137.256960 -35.237680 -170.096157 4.702027 -4.576811 -23.593525 -7.094576 11.092209 -17.452450 -43.245448 9.964376 40.486696 171.871055 -42.007042 -158.142260 24.941941 -9.082707 -55.952924 -13.368948 -63.641909 7.392931 -64.451917 82.092921 -72.600765 -3.959968 -7.566949 8.564961 -0.039214 -0.419923 -0.051345 3.767219 -63.410934 -2.892977 55.894392 85.166331 62.242924 -1.358896 -12.193214 -2.753383 0.198038 0.259683 0.082871
-25.350565 51.693917 27.131541 178.571142 -18.009557 -1.386885 -0.157334 13.368210 0.648619 -0.035946 1.099293 0.073344 -0.031640 1.836500 0.140314 -0.200598 12.106230 0.867573 -1.289425 17.997802 -4.660441 -0.296637 -6.685855 -4.658202 9.193842 10.385411 13.218982 58.178388 -7.684758 -55.875332 137.251077 -35.232703 -170.094747 4.703109 -4.576676 -23.594270 -7.100136 11.086139 -17.445453 -43.259048 9.966176 40.483589 171.834687 -42.001391 -158.112954 24.917625 -9.091861 -55.964842 -13.392032 -63.644182 7.414923 -64.571626 82.090166 -72.705764 -3.967546 -7.583542 8.543622 -0.016329 -0.411970 -0.048153 3.692054 -63.407228 -2.824423 55.888359 85.172944 62.227212 -1.348642 -12.198290 -2.773429 0.198897 0.263862 0.083283
